<?xml version="1.0" encoding="utf-8"?>
<!-- Generator: Adobe Illustrator 22.0.1, SVG Export Plug-In . SVG Version: 6.00 Build 0)  -->
<svg version="1.1" id="圖層_1" xmlns="http://www.w3.org/2000/svg" xmlns:xlink="http://www.w3.org/1999/xlink" x="0px" y="0px"
	 viewBox="0 0 852 218" style="enable-background:new 0 0 852 218;" xml:space="preserve">
<style type="text/css">
	.st0{fill:#393635;}
	.st1{fill:#005293;}
	.st2{fill:#BD8C56;}
</style>
<g>
	<g>
		<path class="st0" d="M241.1,80.3c0.4,0,0.8-0.1,1.2-0.1c9.3,0,18.6-0.2,27.9,0.1c9.7,0.3,18.9,2.8,26.8,8.9
			c8.3,6.5,12.4,15.4,13.9,25.5c1.7,11.5,0.5,22.6-5.6,32.7c-7.5,12.4-18.6,18.9-33.2,19c-9.5,0.1-19,0-28.5,0c-0.8,0-1.6,0-2.4,0
			C241.1,137.7,241.1,109,241.1,80.3z M255.9,86.9c0,24.6,0,48.4,0,72.4c4.3,0,8.5,0.1,12.6,0c11.7-0.3,19.7-6.2,24-16.9
			c3.7-9.1,4.6-18.7,3-28.4c-2.1-12.7-8.8-22-21.6-25.4C268.2,87.1,262,87.4,255.9,86.9z"/>
		<path class="st0" d="M666.5,166.5c-5.7,0-11.4,0-17.1,0c-0.3,0-0.8-0.3-1-0.6c-5.5-7.9-11-15.8-16.6-23.7c-3.2-4.5-6.5-9-9.7-13.5
			c-0.4-0.5-0.8-1-1.5-1.8c0,13.4,0,26.4,0,39.5c-4.8,0-9.8,0-14.7,0c0-28.7,0-57.3,0-86.2c0.6,0,1.3,0,2,0c7.9,0,15.8,0,23.7,0
			c5.2,0,10.3,0.9,15,3.3c12.2,6.2,16.2,22.5,8.1,33c-3.1,4.1-7.5,6.2-12.3,7.6c-2.2,0.6-4.4,1.1-7,1.8
			C646,139.6,656.2,153,666.5,166.5z M620.6,86.7c0,11.6,0,23.1,0,34.7c4.5,1,11.5,0.3,15-1.6c7.5-4.1,10.8-13.8,7.6-22.3
			c-2.2-6-6.3-9.8-12.7-10.6C627.3,86.3,624.1,86.7,620.6,86.7z"/>
		<path class="st0" d="M430.2,166.5c-3.7,0-7.6,0-11.5,0c-0.4,0-0.8-0.5-1.1-0.9c-16-22.4-32-44.9-48-67.3c-0.4-0.5-0.8-1-1.4-1.8
			c0,23.6,0,46.7,0,69.9c-2.3,0-4.5,0-6.8,0c0-28.7,0-57.3,0-86.1c4.3,0,8.7,0,12.8,0c16.3,22.8,32.5,45.5,49.1,68.7
			c0-23.3,0-45.9,0-68.7c2.2,0,4.6,0,6.9,0C430.2,109,430.2,137.6,430.2,166.5z"/>
		<path class="st0" d="M501.3,119.5c4.9,0,9.7,0,14.6,0c0,14.1,0,28.1,0,42.6c0.2-0.3,0.2-0.2,0.1-0.1c-12.5,4.8-25.3,7.3-38.7,5.3
			c-13.6-2.1-23.3-9.6-28.6-22.2c-5.3-12.8-5.7-26.2-1.1-39.3c5.7-16.3,18-24.5,34.8-26.4c9.8-1.1,19.2,0.6,28.5,3.6
			c1.5,0.5,2.2,1.2,2.1,2.9c-0.2,2.6,0,5.3,0,8.3c-1.8-1.1-3.4-2-5-2.9c-8.4-4.5-17.3-6.6-26.6-3.9c-10.4,2.9-16.6,10.4-19.2,20.6
			c-2.9,11.5-2.9,23.1,0.8,34.5c5.1,15.9,22.4,23.2,37.3,15.7c1.1-0.5,1.6-1.2,1.6-2.5c-0.1-10.7,0-21.5,0-32.2
			C501.7,122.2,501.4,120.9,501.3,119.5z"/>
		<path class="st0" d="M779.4,83.7c-0.9,3-1.7,5.8-2.6,8.6c-3.6-1.8-7-3.8-10.6-5c-5.9-2.1-11.9-2.5-17.2,1.7
			c-6.4,4.9-6.4,14.7,0.1,19.4c3.7,2.6,7.8,4.5,11.8,6.7c4,2.2,8.1,4.1,11.9,6.5c12.4,7.6,13.9,24.1,6.3,34.9
			c-5.2,7.5-12.6,10.6-21.3,11.3c-9.3,0.8-18-1.2-26.2-5.6c-1.2-0.6-1.5-1.2-1.1-2.5c0.9-2.7,1.6-5.4,2.5-8.5c1,0.8,1.8,1.5,2.6,2.1
			c4.6,3.9,9.8,6.8,15.9,7c3.1,0.1,6.4-0.2,9.3-1.2c5.4-1.9,8.5-6,9.2-11.7c0.7-5.9-1.3-10.8-6.4-13.8c-4.8-2.9-10-5-14.9-7.8
			c-4.1-2.4-8.5-4.8-11.9-8.1c-11.2-11.2-6.5-30.1,8.7-36.1C755.3,77.4,769.5,78.4,779.4,83.7z"/>
		<path class="st0" d="M593.2,151.5c0,3.7,0.1,6.9-0.1,10.2c0,0.5-0.6,1.3-1.1,1.5c-15.2,6.6-30.4,6.8-45.1-1
			c-8.1-4.3-13-11.5-15.6-20.1c-3.7-12.1-4.1-24.5-0.4-36.6c3.8-12.3,12.3-20.5,24.7-24.1c11.8-3.5,23.7-3.2,35.5,0.7
			c1.5,0.5,2.2,1.2,2.1,2.9c-0.1,2.9,0,5.9,0,9.3c-0.9-0.6-1.5-1-2.1-1.5c-6.1-4.9-13-7.2-20.9-6.6c-9.1,0.7-16.3,4.7-20.5,12.7
			c-8.1,15.5-8.4,31.6-0.6,47.3c5.6,11.4,16.8,16.3,29.3,14c4.9-0.9,8.9-3.6,12.6-6.7C591.6,152.8,592.2,152.3,593.2,151.5z"/>
		<path class="st0" d="M720.1,166.4c-14.8,0-29.5,0-44.2,0c0-28.7,0-57.4,0-86.1c14.6,0,29.3,0,44.1,0c0,2.2,0,4.4,0,6.4
			c-9.8,0-19.6,0-29.5,0c0,10.8,0,21.7,0,32.6c9.8,0,19.6,0,29.5,0c0,2,0,4.1,0,6.3c-9.8,0-19.5,0-29.5,0c0,11.3,0,22.4,0,33.8
			c9.7,0,19.6,0,29.5,0C720.1,161.6,720.1,163.9,720.1,166.4z"/>
		<path class="st0" d="M825.8,166.4c-4.7,0-9.6,0-14.5,0c0-26.2,0-52.4,0-78.8c-7.9,0-15.8,0-23.9,0c0-2.3,0-4.7,0-7.3
			c20.7,0,41.4,0,62.3,0c0,2.4,0,4.9,0,7.3c-7.9,0-15.7,0-23.9,0c0,13.1,0,26.2,0,39.4C825.8,140.1,825.8,153.1,825.8,166.4z"/>
		<path class="st0" d="M341.7,80.3c0,28.7,0,57.3,0,86.1c-4.8,0-9.7,0-14.7,0c0-28.7,0-57.3,0-86.1
			C331.9,80.3,336.9,80.3,341.7,80.3z"/>
	</g>
	<g>
		<path class="st1" d="M131.8,74.4c-0.6,0.2-1.1,0.5-1.7,0.6c-27,7.1-45.1,23.8-53.2,50.6c-9.2,30.4,3.3,63.5,30.7,80.7
			c2.5,1.6,5.5,2.6,8.3,3.4c2.9,0.8,4.3-0.5,4.3-3.6c0.1-6.4,5-11.3,11.1-11.5c6.4-0.1,11.6,4.5,11.9,10.9c0.3,7.4-5.6,12-11.7,11.9
			c-16.6-0.1-33.1,0-49.7,0c-7.8,0-15.5,0.2-23.2-1.6c-21.5-5-37.6-17.3-48.3-36.6c-5.7-10.4-8.4-21.7-8.4-33.6
			c0.1-18.9,6.4-35.6,19.4-49.4C36.1,80.9,54,73.4,75.1,73.4c18.1,0,36.3,0,54.4,0c0.7,0,1.5,0.1,2.2,0.2
			C131.8,73.9,131.8,74.1,131.8,74.4z"/>
		<path class="st2" d="M88.7,144.9c0.6-0.2,1.1-0.5,1.7-0.6c27-7.1,45.1-23.8,53.2-50.6c9.2-30.4-3.3-63.5-30.7-80.7
			c-2.5-1.6-5.5-2.6-8.3-3.4c-2.9-0.8-4.3,0.5-4.3,3.6c-0.1,6.4-5,11.3-11.1,11.5c-6.4,0.1-11.6-4.5-11.9-10.9
			c-0.3-7.4,5.6-12,11.7-11.9c16.6,0.1,33.1,0,49.7,0c7.8,0,15.5-0.2,23.2,1.6c21.5,5,37.6,17.3,48.3,36.6
			c5.7,10.4,8.4,21.7,8.4,33.6c-0.1,18.9-6.4,35.6-19.4,49.4c-14.5,15.3-32.4,22.9-53.6,22.8c-18.1,0-36.3,0-54.4,0
			c-0.7,0-1.5-0.1-2.2-0.2C88.8,145.4,88.7,145.2,88.7,144.9z"/>
	</g>
</g>
</svg>
